<svg width="25" height="24" viewBox="0 0 25 24" fill="none" xmlns="http://www.w3.org/2000/svg">
<path d="M22.0625 11.25H15.5C14.9033 11.25 14.331 11.0129 13.909 10.591C13.4871 10.169 13.25 9.59674 13.25 9V2.4375C13.25 2.38777 13.2302 2.34008 13.1951 2.30492C13.1599 2.26975 13.1122 2.25 13.0625 2.25H10.5664C10.4789 2.08788 10.3769 1.93397 10.2617 1.79016C9.72125 1.11937 8.91828 0.75 8 0.75C6.23375 0.75 5 2.13797 5 4.125V10.875C5 12.0469 5.95344 12.75 6.875 12.75C7.12198 12.7527 7.36701 12.706 7.59571 12.6128C7.82442 12.5195 8.03219 12.3815 8.20684 12.2068C8.38149 12.0322 8.5195 11.8244 8.61277 11.5957C8.70604 11.367 8.7527 11.122 8.75 10.875V3.75C8.75 3.55109 8.67098 3.36032 8.53033 3.21967C8.38968 3.07902 8.19891 3 8 3C7.80109 3 7.61032 3.07902 7.46967 3.21967C7.32902 3.36032 7.25 3.55109 7.25 3.75V10.875C7.25163 10.9247 7.24305 10.9742 7.22478 11.0204C7.20651 11.0666 7.17895 11.1086 7.14379 11.1438C7.10864 11.1789 7.06665 11.2065 7.02041 11.2248C6.97418 11.243 6.92469 11.2516 6.875 11.25C6.77047 11.25 6.5 11.1825 6.5 10.875V4.125C6.5 3.21844 6.89422 2.25 8 2.25C9.39172 2.25 9.5 3.66328 9.5 4.09594V10.5998C9.5 11.4178 9.24359 12.1575 8.77766 12.6839C8.30469 13.2188 7.64703 13.5 6.875 13.5C6.10297 13.5 5.44531 13.2188 4.97234 12.6839C4.50641 12.1575 4.25 11.4178 4.25 10.5998V6.75C4.25 6.55109 4.17098 6.36032 4.03033 6.21967C3.88968 6.07902 3.69891 6 3.5 6C3.30109 6 3.11032 6.07902 2.96967 6.21967C2.82902 6.36032 2.75 6.55109 2.75 6.75V10.5998C2.75 13.0144 4.30578 14.8013 6.5 14.9841V20.25C6.5 21.0456 6.81607 21.8087 7.37868 22.3713C7.94129 22.9339 8.70435 23.25 9.5 23.25H19.25C20.0456 23.25 20.8087 22.9339 21.3713 22.3713C21.9339 21.8087 22.25 21.0456 22.25 20.25V11.4375C22.25 11.3878 22.2302 11.3401 22.1951 11.3049C22.1599 11.2698 22.1122 11.25 22.0625 11.25Z" fill="#BAC3D2"/>
<path d="M15.5 9.74998H21.5848C21.6033 9.7499 21.6214 9.74436 21.6367 9.73405C21.6521 9.72375 21.664 9.70913 21.6711 9.69205C21.6781 9.67497 21.68 9.65618 21.6764 9.63805C21.6728 9.61991 21.664 9.60324 21.6509 9.59013L14.9098 2.84904C14.8967 2.83601 14.8801 2.82714 14.8619 2.82356C14.8438 2.81997 14.825 2.82183 14.8079 2.82889C14.7908 2.83595 14.7762 2.84791 14.7659 2.86326C14.7556 2.8786 14.7501 2.89665 14.75 2.91513V8.99998C14.75 9.19889 14.829 9.38966 14.9697 9.53031C15.1103 9.67096 15.3011 9.74998 15.5 9.74998Z" fill="#BAC3D2"/>
</svg>
