<svg width="32" height="32" viewBox="0 0 32 32" fill="none" xmlns="http://www.w3.org/2000/svg">
<path fill-rule="evenodd" clip-rule="evenodd" d="M19 3.33333C19 3.24493 18.9649 3.16014 18.9024 3.09763C18.8399 3.03512 18.7551 3 18.6667 3H9.33334C8.36088 3 7.42825 3.38631 6.74061 4.07394C6.05298 4.76158 5.66667 5.69421 5.66667 6.66667V25.3333C5.66667 26.3058 6.05298 27.2384 6.74061 27.9261C7.42825 28.6137 8.36088 29 9.33334 29H22.6667C23.6391 29 24.5718 28.6137 25.2594 27.9261C25.947 27.2384 26.3333 26.3058 26.3333 25.3333V12.196C26.3333 12.1076 26.2982 12.0228 26.2357 11.9603C26.1732 11.8978 26.0884 11.8627 26 11.8627H20C19.7348 11.8627 19.4804 11.7573 19.2929 11.5698C19.1054 11.3822 19 11.1279 19 10.8627V3.33333ZM20 16.3333C20.2652 16.3333 20.5196 16.4387 20.7071 16.6262C20.8946 16.8138 21 17.0681 21 17.3333C21 17.5985 20.8946 17.8529 20.7071 18.0404C20.5196 18.228 20.2652 18.3333 20 18.3333H12C11.7348 18.3333 11.4804 18.228 11.2929 18.0404C11.1054 17.8529 11 17.5985 11 17.3333C11 17.0681 11.1054 16.8138 11.2929 16.6262C11.4804 16.4387 11.7348 16.3333 12 16.3333H20ZM20 21.6667C20.2652 21.6667 20.5196 21.772 20.7071 21.9596C20.8946 22.1471 21 22.4015 21 22.6667C21 22.9319 20.8946 23.1862 20.7071 23.3738C20.5196 23.5613 20.2652 23.6667 20 23.6667H12C11.7348 23.6667 11.4804 23.5613 11.2929 23.3738C11.1054 23.1862 11 22.9319 11 22.6667C11 22.4015 11.1054 22.1471 11.2929 21.9596C11.4804 21.772 11.7348 21.6667 12 21.6667H20Z" fill="#0CCFAC"/>
<path d="M21 3.76532C21 3.51998 21.2573 3.36398 21.448 3.51732C21.6093 3.64798 21.7547 3.79998 21.8787 3.97332L25.896 9.56932C25.9867 9.69732 25.888 9.86265 25.7307 9.86265H21.3333C21.2449 9.86265 21.1601 9.82753 21.0976 9.76502C21.0351 9.70251 21 9.61772 21 9.52932V3.76532Z" fill="#0CCFAC"/>
</svg>
