<svg width="20" height="20" viewBox="0 0 20 20" fill="none" xmlns="http://www.w3.org/2000/svg">
<path d="M18 11.3306H11.3334V17.9973C11.3334 18.3509 11.1929 18.69 10.9428 18.9401C10.6928 19.1901 10.3536 19.3306 10 19.3306C9.6464 19.3306 9.30726 19.1901 9.05721 18.9401C8.80716 18.69 8.66669 18.3509 8.66669 17.9973V11.3306H2.00002C1.6464 11.3306 1.30726 11.1901 1.05721 10.9401C0.807163 10.69 0.666687 10.3509 0.666687 9.99727C0.666687 9.64365 0.807163 9.30451 1.05721 9.05447C1.30726 8.80442 1.6464 8.66394 2.00002 8.66394H8.66669V1.99727C8.66669 1.64365 8.80716 1.30451 9.05721 1.05446C9.30726 0.804416 9.6464 0.66394 10 0.66394C10.3536 0.66394 10.6928 0.804416 10.9428 1.05446C11.1929 1.30451 11.3334 1.64365 11.3334 1.99727V8.66394H18C18.3536 8.66394 18.6928 8.80442 18.9428 9.05447C19.1929 9.30451 19.3334 9.64365 19.3334 9.99727C19.3334 10.3509 19.1929 10.69 18.9428 10.9401C18.6928 11.1901 18.3536 11.3306 18 11.3306Z" fill="white"/>
</svg>
