<svg width="24" height="25" viewBox="0 0 24 25" fill="none" xmlns="http://www.w3.org/2000/svg">
<rect y="0.5" width="24" height="24" rx="4" fill="#0CCFAC"/>
<path d="M6.18 20.5C7.38398 20.5 8.36 19.524 8.36 18.32C8.36 17.116 7.38398 16.14 6.18 16.14C4.97602 16.14 4 17.116 4 18.32C4 19.524 4.97602 20.5 6.18 20.5Z" fill="#143369"/>
<path d="M5.59 10.73C4.75 10.59 4 11.28 4 12.13C4 12.84 4.53 13.41 5.23 13.53C8.15 14.04 10.45 16.35 10.97 19.27C11.09 19.97 11.66 20.5 12.37 20.5C13.22 20.5 13.91 19.75 13.78 18.91C13.4466 16.8593 12.4761 14.9656 11.0061 13.4973C9.53604 12.0291 7.64113 11.0609 5.59 10.73ZM5.56 5.02002C4.73 4.93002 4 5.60002 4 6.43002C4 7.16002 4.55 7.76002 5.27 7.83002C11.28 8.43002 16.06 13.21 16.66 19.22C16.73 19.95 17.33 20.5 18.06 20.5C18.9 20.5 19.56 19.77 19.48 18.94C18.75 11.6 12.91 5.75002 5.56 5.02002Z" fill="#143369"/>
</svg>
